<svg xmlns="http://www.w3.org/2000/svg" xmlns:xlink="http://www.w3.org/1999/xlink" width="2000" zoomAndPan="magnify" viewBox="0 0 1500 1499.999933" height="2000" preserveAspectRatio="xMidYMid meet" version="1.0"><defs><g/><clipPath id="872ae08666"><path d="M 37.886719 37.886719 L 1462.136719 37.886719 L 1462.136719 1462.136719 L 37.886719 1462.136719 Z M 37.886719 37.886719 " clip-rule="nonzero"/></clipPath><clipPath id="09f4af2242"><path d="M 0.0390625 300 L 995 300 L 995 336 L 0.0390625 336 Z M 0.0390625 300 " clip-rule="nonzero"/></clipPath><clipPath id="00d901902a"><path d="M 0.0390625 92 L 149 92 L 149 283 L 0.0390625 283 Z M 0.0390625 92 " clip-rule="nonzero"/></clipPath><clipPath id="d518f72e47"><rect x="0" width="996" y="0" height="720"/></clipPath></defs><g clip-path="url(#872ae08666)"><path fill="#000000" d="M 1462.113281 750 C 1462.113281 761.652344 1461.828125 773.300781 1461.253906 784.941406 C 1460.683594 796.582031 1459.824219 808.199219 1458.683594 819.796875 C 1457.542969 831.398438 1456.113281 842.960938 1454.40625 854.488281 C 1452.695312 866.015625 1450.703125 877.496094 1448.429688 888.925781 C 1446.15625 900.355469 1443.601562 911.722656 1440.769531 923.027344 C 1437.9375 934.332031 1434.832031 945.5625 1431.449219 956.714844 C 1428.066406 967.867188 1424.410156 978.929688 1420.484375 989.902344 C 1416.558594 1000.875 1412.367188 1011.746094 1407.90625 1022.511719 C 1403.445312 1033.28125 1398.722656 1043.929688 1393.742188 1054.464844 C 1388.757812 1065.003906 1383.519531 1075.410156 1378.027344 1085.6875 C 1372.53125 1095.964844 1366.789062 1106.101562 1360.800781 1116.097656 C 1354.808594 1126.09375 1348.574219 1135.9375 1342.097656 1145.628906 C 1335.625 1155.316406 1328.917969 1164.84375 1321.972656 1174.203125 C 1315.03125 1183.566406 1307.863281 1192.75 1300.46875 1201.757812 C 1293.078125 1210.769531 1285.464844 1219.589844 1277.640625 1228.226562 C 1269.8125 1236.859375 1261.78125 1245.296875 1253.539062 1253.539062 C 1245.296875 1261.78125 1236.859375 1269.8125 1228.226562 1277.640625 C 1219.589844 1285.464844 1210.769531 1293.078125 1201.757812 1300.46875 C 1192.75 1307.863281 1183.566406 1315.03125 1174.203125 1321.972656 C 1164.84375 1328.917969 1155.316406 1335.625 1145.628906 1342.097656 C 1135.9375 1348.574219 1126.09375 1354.808594 1116.097656 1360.800781 C 1106.101562 1366.789062 1095.964844 1372.53125 1085.6875 1378.027344 C 1075.410156 1383.519531 1065.003906 1388.757812 1054.464844 1393.742188 C 1043.929688 1398.722656 1033.28125 1403.445312 1022.511719 1407.90625 C 1011.746094 1412.367188 1000.875 1416.558594 989.902344 1420.484375 C 978.929688 1424.410156 967.867188 1428.066406 956.714844 1431.449219 C 945.5625 1434.832031 934.332031 1437.9375 923.027344 1440.769531 C 911.722656 1443.601562 900.355469 1446.15625 888.925781 1448.429688 C 877.496094 1450.703125 866.015625 1452.695312 854.488281 1454.40625 C 842.960938 1456.113281 831.398438 1457.542969 819.796875 1458.683594 C 808.199219 1459.824219 796.582031 1460.683594 784.941406 1461.253906 C 773.300781 1461.828125 761.652344 1462.113281 750 1462.113281 C 738.34375 1462.113281 726.699219 1461.828125 715.058594 1461.253906 C 703.417969 1460.683594 691.796875 1459.824219 680.199219 1458.683594 C 668.601562 1457.542969 657.039062 1456.113281 645.511719 1454.40625 C 633.980469 1452.695312 622.503906 1450.703125 611.074219 1448.429688 C 599.640625 1446.15625 588.273438 1443.601562 576.96875 1440.769531 C 565.664062 1437.9375 554.4375 1434.832031 543.285156 1431.449219 C 532.132812 1428.066406 521.070312 1424.410156 510.09375 1420.484375 C 499.121094 1416.558594 488.253906 1412.367188 477.484375 1407.90625 C 466.71875 1403.445312 456.066406 1398.722656 445.53125 1393.742188 C 434.996094 1388.757812 424.589844 1383.519531 414.3125 1378.027344 C 404.03125 1372.53125 393.894531 1366.789062 383.898438 1360.800781 C 373.902344 1354.808594 364.058594 1348.574219 354.371094 1342.097656 C 344.679688 1335.625 335.15625 1328.917969 325.792969 1321.972656 C 316.433594 1315.03125 307.25 1307.863281 298.238281 1300.46875 C 289.230469 1293.078125 280.410156 1285.464844 271.773438 1277.640625 C 263.136719 1269.8125 254.699219 1261.78125 246.460938 1253.539062 C 238.21875 1245.296875 230.183594 1236.859375 222.359375 1228.226562 C 214.53125 1219.589844 206.921875 1210.769531 199.527344 1201.757812 C 192.136719 1192.75 184.96875 1183.566406 178.023438 1174.203125 C 171.082031 1164.84375 164.375 1155.316406 157.898438 1145.628906 C 151.425781 1135.9375 145.191406 1126.09375 139.199219 1116.097656 C 133.207031 1106.101562 127.464844 1095.964844 121.972656 1085.6875 C 116.476562 1075.410156 111.238281 1065.003906 106.257812 1054.464844 C 101.273438 1043.929688 96.550781 1033.28125 92.09375 1022.511719 C 87.632812 1011.746094 83.4375 1000.875 79.511719 989.902344 C 75.585938 978.929688 71.933594 967.867188 68.550781 956.714844 C 65.167969 945.5625 62.058594 934.332031 59.226562 923.027344 C 56.394531 911.722656 53.84375 900.355469 51.570312 888.925781 C 49.296875 877.496094 47.304688 866.015625 45.59375 854.488281 C 43.882812 842.960938 42.457031 831.398438 41.316406 819.796875 C 40.171875 808.199219 39.316406 796.582031 38.742188 784.941406 C 38.171875 773.300781 37.886719 761.652344 37.886719 750 C 37.886719 738.34375 38.171875 726.699219 38.742188 715.058594 C 39.316406 703.417969 40.171875 691.796875 41.316406 680.199219 C 42.457031 668.601562 43.882812 657.039062 45.59375 645.511719 C 47.304688 633.980469 49.296875 622.503906 51.570312 611.074219 C 53.84375 599.640625 56.394531 588.273438 59.226562 576.96875 C 62.058594 565.664062 65.167969 554.4375 68.550781 543.285156 C 71.933594 532.132812 75.585938 521.070312 79.511719 510.09375 C 83.4375 499.121094 87.632812 488.253906 92.09375 477.484375 C 96.550781 466.71875 101.273438 456.066406 106.257812 445.53125 C 111.238281 434.996094 116.476562 424.589844 121.972656 414.3125 C 127.464844 404.03125 133.207031 393.894531 139.199219 383.898438 C 145.191406 373.902344 151.425781 364.058594 157.898438 354.371094 C 164.375 344.679688 171.082031 335.15625 178.023438 325.792969 C 184.96875 316.433594 192.136719 307.25 199.527344 298.238281 C 206.921875 289.230469 214.53125 280.410156 222.359375 271.773438 C 230.183594 263.136719 238.21875 254.699219 246.460938 246.460938 C 254.699219 238.21875 263.136719 230.183594 271.773438 222.359375 C 280.410156 214.53125 289.230469 206.921875 298.238281 199.527344 C 307.25 192.136719 316.433594 184.96875 325.792969 178.023438 C 335.15625 171.082031 344.679688 164.375 354.371094 157.898438 C 364.058594 151.425781 373.902344 145.191406 383.898438 139.199219 C 393.894531 133.207031 404.03125 127.464844 414.3125 121.972656 C 424.589844 116.476562 434.996094 111.238281 445.53125 106.257812 C 456.066406 101.273438 466.71875 96.550781 477.484375 92.09375 C 488.253906 87.632812 499.121094 83.4375 510.09375 79.511719 C 521.070312 75.585938 532.132812 71.933594 543.285156 68.550781 C 554.4375 65.167969 565.664062 62.058594 576.96875 59.226562 C 588.273438 56.394531 599.640625 53.84375 611.074219 51.570312 C 622.503906 49.296875 633.980469 47.304688 645.511719 45.59375 C 657.039062 43.882812 668.601562 42.457031 680.199219 41.316406 C 691.796875 40.171875 703.417969 39.316406 715.058594 38.742188 C 726.699219 38.171875 738.34375 37.886719 750 37.886719 C 761.652344 37.886719 773.300781 38.171875 784.941406 38.742188 C 796.582031 39.316406 808.199219 40.171875 819.796875 41.316406 C 831.398438 42.457031 842.960938 43.882812 854.488281 45.59375 C 866.015625 47.304688 877.496094 49.296875 888.925781 51.570312 C 900.355469 53.84375 911.722656 56.394531 923.027344 59.226562 C 934.332031 62.058594 945.5625 65.167969 956.714844 68.550781 C 967.867188 71.933594 978.929688 75.585938 989.902344 79.511719 C 1000.875 83.4375 1011.746094 87.632812 1022.511719 92.09375 C 1033.28125 96.550781 1043.929688 101.273438 1054.464844 106.257812 C 1065.003906 111.238281 1075.410156 116.476562 1085.6875 121.972656 C 1095.964844 127.464844 1106.101562 133.207031 1116.097656 139.199219 C 1126.09375 145.191406 1135.9375 151.425781 1145.628906 157.898438 C 1155.316406 164.375 1164.84375 171.082031 1174.203125 178.023438 C 1183.566406 184.96875 1192.75 192.136719 1201.757812 199.527344 C 1210.769531 206.921875 1219.589844 214.53125 1228.226562 222.359375 C 1236.859375 230.183594 1245.296875 238.21875 1253.539062 246.460938 C 1261.78125 254.699219 1269.8125 263.136719 1277.640625 271.773438 C 1285.46875 280.410156 1293.078125 289.230469 1300.46875 298.238281 C 1307.863281 307.25 1315.03125 316.433594 1321.972656 325.792969 C 1328.917969 335.15625 1335.625 344.679688 1342.101562 354.371094 C 1348.574219 364.058594 1354.808594 373.902344 1360.800781 383.898438 C 1366.789062 393.894531 1372.53125 404.03125 1378.027344 414.3125 C 1383.519531 424.589844 1388.757812 434.996094 1393.742188 445.53125 C 1398.722656 456.066406 1403.445312 466.71875 1407.90625 477.484375 C 1412.367188 488.253906 1416.558594 499.121094 1420.484375 510.09375 C 1424.410156 521.070312 1428.066406 532.132812 1431.449219 543.285156 C 1434.832031 554.4375 1437.9375 565.664062 1440.769531 576.96875 C 1443.601562 588.273438 1446.15625 599.640625 1448.429688 611.074219 C 1450.703125 622.503906 1452.695312 633.980469 1454.40625 645.511719 C 1456.113281 657.039062 1457.542969 668.601562 1458.683594 680.199219 C 1459.824219 691.796875 1460.683594 703.417969 1461.253906 715.058594 C 1461.828125 726.699219 1462.113281 738.34375 1462.113281 750 Z M 1462.113281 750 " fill-opacity="1" fill-rule="nonzero"/></g><path fill="#ffffff" d="M 750 1394.191406 C 394.472656 1394.191406 105.808594 1105.523438 105.808594 750 C 105.808594 394.472656 394.472656 105.808594 750 105.808594 C 1105.523438 105.808594 1394.191406 394.472656 1394.191406 750 C 1394.191406 1105.523438 1105.523438 1394.191406 750 1394.191406 Z M 750 121.726562 C 402.964844 121.726562 121.726562 402.964844 121.726562 750 C 121.726562 1097.035156 404.023438 1378.273438 750 1378.273438 C 1097.035156 1378.273438 1378.273438 1095.972656 1378.273438 750 C 1378.273438 402.964844 1097.035156 121.726562 750 121.726562 Z M 750 121.726562 " fill-opacity="1" fill-rule="nonzero"/><g transform="matrix(1, 0, 0, 1, 251, 390)"><g clip-path="url(#d518f72e47)"><g clip-path="url(#09f4af2242)"><path fill="#38b6ff" d="M 0.320312 300.242188 L 994.851562 300.242188 L 994.851562 335.007812 L 0.320312 335.007812 Z M 0.320312 300.242188 " fill-opacity="1" fill-rule="nonzero"/></g><g clip-path="url(#00d901902a)"><g fill="#38b6ff" fill-opacity="1"><g transform="translate(0.321357, 282.312469)"><g><path d="M 32.046875 -169.046875 C 28.992188 -169.046875 26.410156 -170.039062 24.296875 -172.03125 C 22.179688 -174.03125 21.125 -176.554688 21.125 -179.609375 C 21.125 -182.660156 22.179688 -185.179688 24.296875 -187.171875 C 26.410156 -189.171875 28.992188 -190.171875 32.046875 -190.171875 L 115.859375 -190.171875 C 118.910156 -190.171875 121.492188 -189.171875 123.609375 -187.171875 C 125.722656 -185.179688 126.78125 -182.660156 126.78125 -179.609375 C 126.78125 -176.554688 125.722656 -174.03125 123.609375 -172.03125 C 121.492188 -170.039062 118.910156 -169.046875 115.859375 -169.046875 Z M 10.5625 -21.125 C 7.507812 -21.125 4.984375 -22.125 2.984375 -24.125 C 0.992188 -26.125 0 -28.648438 0 -31.703125 C 0 -34.753906 0.992188 -37.273438 2.984375 -39.265625 C 4.984375 -41.265625 7.507812 -42.265625 10.5625 -42.265625 C 13.613281 -42.265625 16.132812 -41.265625 18.125 -39.265625 C 20.125 -37.273438 21.125 -34.753906 21.125 -31.703125 C 21.125 -28.648438 20.125 -26.125 18.125 -24.125 C 16.132812 -22.125 13.613281 -21.125 10.5625 -21.125 Z M 32.046875 0 C 28.992188 0 26.410156 -0.992188 24.296875 -2.984375 C 22.179688 -4.984375 21.125 -7.507812 21.125 -10.5625 C 21.125 -13.613281 22.179688 -16.132812 24.296875 -18.125 C 26.410156 -20.125 28.992188 -21.125 32.046875 -21.125 L 115.859375 -21.125 C 118.910156 -21.125 121.492188 -20.125 123.609375 -18.125 C 125.722656 -16.132812 126.78125 -13.613281 126.78125 -10.5625 C 126.78125 -7.507812 125.722656 -4.984375 123.609375 -2.984375 C 121.492188 -0.992188 118.910156 0 115.859375 0 Z M 10.5625 -105.65625 C 7.507812 -105.65625 4.984375 -106.707031 2.984375 -108.8125 C 0.992188 -110.925781 0 -113.507812 0 -116.5625 L 0 -158.125 C 0 -161.175781 0.992188 -163.757812 2.984375 -165.875 C 4.984375 -167.988281 7.507812 -169.046875 10.5625 -169.046875 C 13.613281 -169.046875 16.132812 -167.988281 18.125 -165.875 C 20.125 -163.757812 21.125 -161.175781 21.125 -158.125 L 21.125 -116.5625 C 21.125 -113.507812 20.125 -110.925781 18.125 -108.8125 C 16.132812 -106.707031 13.613281 -105.65625 10.5625 -105.65625 Z M 32.046875 -84.515625 C 28.992188 -84.515625 26.410156 -85.515625 24.296875 -87.515625 C 22.179688 -89.515625 21.125 -92.039062 21.125 -95.09375 C 21.125 -98.144531 22.179688 -100.664062 24.296875 -102.65625 C 26.410156 -104.65625 28.992188 -105.65625 32.046875 -105.65625 L 115.859375 -105.65625 C 118.910156 -105.65625 121.492188 -104.65625 123.609375 -102.65625 C 125.722656 -100.664062 126.78125 -98.144531 126.78125 -95.09375 C 126.78125 -92.039062 125.722656 -89.515625 123.609375 -87.515625 C 121.492188 -85.515625 118.910156 -84.515625 115.859375 -84.515625 Z M 137.34375 -21.125 C 134.289062 -21.125 131.765625 -22.179688 129.765625 -24.296875 C 127.773438 -26.410156 126.78125 -28.992188 126.78125 -32.046875 L 126.78125 -73.609375 C 126.78125 -76.660156 127.773438 -79.238281 129.765625 -81.34375 C 131.765625 -83.457031 134.289062 -84.515625 137.34375 -84.515625 C 140.394531 -84.515625 142.914062 -83.457031 144.90625 -81.34375 C 146.90625 -79.238281 147.90625 -76.660156 147.90625 -73.609375 L 147.90625 -32.046875 C 147.90625 -28.992188 146.90625 -26.410156 144.90625 -24.296875 C 142.914062 -22.179688 140.394531 -21.125 137.34375 -21.125 Z M 137.34375 -147.90625 C 134.289062 -147.90625 131.765625 -148.90625 129.765625 -150.90625 C 127.773438 -152.90625 126.78125 -155.429688 126.78125 -158.484375 C 126.78125 -161.535156 127.773438 -164.054688 129.765625 -166.046875 C 131.765625 -168.046875 134.289062 -169.046875 137.34375 -169.046875 C 140.394531 -169.046875 142.914062 -168.046875 144.90625 -166.046875 C 146.90625 -164.054688 147.90625 -161.535156 147.90625 -158.484375 C 147.90625 -155.429688 146.90625 -152.90625 144.90625 -150.90625 C 142.914062 -148.90625 140.394531 -147.90625 137.34375 -147.90625 Z M 137.34375 -147.90625 "/></g></g></g></g><g fill="#38b6ff" fill-opacity="1"><g transform="translate(166.544717, 282.312469)"><g><path d="M 52.828125 -21.125 C 49.773438 -21.125 47.25 -22.179688 45.25 -24.296875 C 43.257812 -26.410156 42.265625 -28.992188 42.265625 -32.046875 L 42.265625 -84.515625 L 10.921875 -84.515625 C 7.867188 -84.515625 5.285156 -85.515625 3.171875 -87.515625 C 1.054688 -89.515625 0 -92.039062 0 -95.09375 C 0 -98.144531 1.054688 -100.664062 3.171875 -102.65625 C 5.285156 -104.65625 7.867188 -105.65625 10.921875 -105.65625 L 42.265625 -105.65625 L 42.265625 -179.25 C 42.265625 -182.300781 43.257812 -184.882812 45.25 -187 C 47.25 -189.113281 49.773438 -190.171875 52.828125 -190.171875 C 55.878906 -190.171875 58.398438 -189.113281 60.390625 -187 C 62.390625 -184.882812 63.390625 -182.300781 63.390625 -179.25 L 63.390625 -105.65625 L 94.734375 -105.65625 C 97.785156 -105.65625 100.367188 -104.65625 102.484375 -102.65625 C 104.597656 -100.664062 105.65625 -98.144531 105.65625 -95.09375 C 105.65625 -92.039062 104.597656 -89.515625 102.484375 -87.515625 C 100.367188 -85.515625 97.785156 -84.515625 94.734375 -84.515625 L 63.390625 -84.515625 L 63.390625 -32.046875 C 63.390625 -28.992188 62.390625 -26.410156 60.390625 -24.296875 C 58.398438 -22.179688 55.878906 -21.125 52.828125 -21.125 Z M 74.3125 0 C 71.257812 0 68.675781 -0.992188 66.5625 -2.984375 C 64.445312 -4.984375 63.390625 -7.507812 63.390625 -10.5625 C 63.390625 -13.613281 64.445312 -16.132812 66.5625 -18.125 C 68.675781 -20.125 71.257812 -21.125 74.3125 -21.125 L 94.734375 -21.125 C 97.785156 -21.125 100.367188 -20.125 102.484375 -18.125 C 104.597656 -16.132812 105.65625 -13.613281 105.65625 -10.5625 C 105.65625 -7.507812 104.597656 -4.984375 102.484375 -2.984375 C 100.367188 -0.992188 97.785156 0 94.734375 0 Z M 74.3125 0 "/></g></g></g><g fill="#38b6ff" fill-opacity="1"><g transform="translate(290.507857, 282.312469)"><g><path d="M 10.5625 0 C 7.507812 0 4.984375 -1.054688 2.984375 -3.171875 C 0.992188 -5.285156 0 -7.867188 0 -10.921875 L 0 -94.734375 C 0 -97.785156 0.992188 -100.367188 2.984375 -102.484375 C 4.984375 -104.597656 7.507812 -105.65625 10.5625 -105.65625 C 13.613281 -105.65625 16.132812 -104.597656 18.125 -102.484375 C 20.125 -100.367188 21.125 -97.785156 21.125 -94.734375 L 21.125 -84.515625 L 31.34375 -84.515625 C 34.394531 -84.515625 36.976562 -83.515625 39.09375 -81.515625 C 41.207031 -79.523438 42.265625 -77.003906 42.265625 -73.953125 C 42.265625 -70.898438 41.207031 -68.375 39.09375 -66.375 C 36.976562 -64.382812 34.394531 -63.390625 31.34375 -63.390625 L 21.125 -63.390625 L 21.125 -10.921875 C 21.125 -7.867188 20.125 -5.285156 18.125 -3.171875 C 16.132812 -1.054688 13.613281 0 10.5625 0 Z M 53.171875 -84.515625 C 50.117188 -84.515625 47.535156 -85.515625 45.421875 -87.515625 C 43.316406 -89.515625 42.265625 -92.039062 42.265625 -95.09375 C 42.265625 -98.144531 43.316406 -100.664062 45.421875 -102.65625 C 47.535156 -104.65625 50.117188 -105.65625 53.171875 -105.65625 L 115.859375 -105.65625 C 118.910156 -105.65625 121.492188 -104.65625 123.609375 -102.65625 C 125.722656 -100.664062 126.78125 -98.144531 126.78125 -95.09375 C 126.78125 -92.039062 125.722656 -89.515625 123.609375 -87.515625 C 121.492188 -85.515625 118.910156 -84.515625 115.859375 -84.515625 Z M 137.34375 -63.390625 C 134.289062 -63.390625 131.765625 -64.382812 129.765625 -66.375 C 127.773438 -68.375 126.78125 -70.898438 126.78125 -73.953125 C 126.78125 -77.003906 127.773438 -79.523438 129.765625 -81.515625 C 131.765625 -83.515625 134.289062 -84.515625 137.34375 -84.515625 C 140.394531 -84.515625 142.914062 -83.515625 144.90625 -81.515625 C 146.90625 -79.523438 147.90625 -77.003906 147.90625 -73.953125 C 147.90625 -70.898438 146.90625 -68.375 144.90625 -66.375 C 142.914062 -64.382812 140.394531 -63.390625 137.34375 -63.390625 Z M 137.34375 -63.390625 "/></g></g></g><g fill="#38b6ff" fill-opacity="1"><g transform="translate(456.731217, 282.312469)"><g><path d="M 32.046875 0 C 28.992188 0 26.410156 -0.992188 24.296875 -2.984375 C 22.179688 -4.984375 21.125 -7.507812 21.125 -10.5625 C 21.125 -13.613281 22.179688 -16.132812 24.296875 -18.125 C 26.410156 -20.125 28.992188 -21.125 32.046875 -21.125 L 115.859375 -21.125 C 118.910156 -21.125 121.492188 -20.125 123.609375 -18.125 C 125.722656 -16.132812 126.78125 -13.613281 126.78125 -10.5625 C 126.78125 -7.507812 125.722656 -4.984375 123.609375 -2.984375 C 121.492188 -0.992188 118.910156 0 115.859375 0 Z M 10.5625 -21.125 C 7.507812 -21.125 4.984375 -22.179688 2.984375 -24.296875 C 0.992188 -26.410156 0 -28.992188 0 -32.046875 L 0 -94.734375 C 0 -97.785156 0.992188 -100.367188 2.984375 -102.484375 C 4.984375 -104.597656 7.507812 -105.65625 10.5625 -105.65625 C 13.613281 -105.65625 16.132812 -104.597656 18.125 -102.484375 C 20.125 -100.367188 21.125 -97.785156 21.125 -94.734375 L 21.125 -32.046875 C 21.125 -28.992188 20.125 -26.410156 18.125 -24.296875 C 16.132812 -22.179688 13.613281 -21.125 10.5625 -21.125 Z M 137.34375 -21.125 C 134.289062 -21.125 131.765625 -22.179688 129.765625 -24.296875 C 127.773438 -26.410156 126.78125 -28.992188 126.78125 -32.046875 L 126.78125 -94.734375 C 126.78125 -97.785156 127.773438 -100.367188 129.765625 -102.484375 C 131.765625 -104.597656 134.289062 -105.65625 137.34375 -105.65625 C 140.394531 -105.65625 142.914062 -104.597656 144.90625 -102.484375 C 146.90625 -100.367188 147.90625 -97.785156 147.90625 -94.734375 L 147.90625 -32.046875 C 147.90625 -28.992188 146.90625 -26.410156 144.90625 -24.296875 C 142.914062 -22.179688 140.394531 -21.125 137.34375 -21.125 Z M 137.34375 -21.125 "/></g></g></g><g fill="#38b6ff" fill-opacity="1"><g transform="translate(622.95461, 282.312469)"><g><path d="M 10.5625 0 C 7.507812 0 4.984375 -1.054688 2.984375 -3.171875 C 0.992188 -5.285156 0 -7.867188 0 -10.921875 L 0 -94.734375 C 0 -97.785156 1.054688 -100.367188 3.171875 -102.484375 C 5.285156 -104.597656 7.867188 -105.65625 10.921875 -105.65625 L 115.859375 -105.65625 C 118.910156 -105.65625 121.492188 -104.65625 123.609375 -102.65625 C 125.722656 -100.664062 126.78125 -98.144531 126.78125 -95.09375 C 126.78125 -92.039062 125.722656 -89.515625 123.609375 -87.515625 C 121.492188 -85.515625 118.910156 -84.515625 115.859375 -84.515625 L 21.125 -84.515625 L 21.125 -10.921875 C 21.125 -7.867188 20.125 -5.285156 18.125 -3.171875 C 16.132812 -1.054688 13.613281 0 10.5625 0 Z M 137.34375 0 C 134.289062 0 131.765625 -1.054688 129.765625 -3.171875 C 127.773438 -5.285156 126.78125 -7.867188 126.78125 -10.921875 L 126.78125 -73.609375 C 126.78125 -76.660156 127.773438 -79.238281 129.765625 -81.34375 C 131.765625 -83.457031 134.289062 -84.515625 137.34375 -84.515625 C 140.394531 -84.515625 142.914062 -83.457031 144.90625 -81.34375 C 146.90625 -79.238281 147.90625 -76.660156 147.90625 -73.609375 L 147.90625 -10.921875 C 147.90625 -7.867188 146.90625 -5.285156 144.90625 -3.171875 C 142.914062 -1.054688 140.394531 0 137.34375 0 Z M 137.34375 0 "/></g></g></g><g fill="#38b6ff" fill-opacity="1"><g transform="translate(789.177937, 282.312469)"><g><path d="M 10.5625 0 C 7.507812 0 4.984375 -1.054688 2.984375 -3.171875 C 0.992188 -5.285156 0 -7.867188 0 -10.921875 L 0 -94.734375 C 0 -97.785156 0.992188 -100.367188 2.984375 -102.484375 C 4.984375 -104.597656 7.507812 -105.65625 10.5625 -105.65625 C 13.613281 -105.65625 16.132812 -104.597656 18.125 -102.484375 C 20.125 -100.367188 21.125 -97.785156 21.125 -94.734375 L 21.125 -10.921875 C 21.125 -7.867188 20.125 -5.285156 18.125 -3.171875 C 16.132812 -1.054688 13.613281 0 10.5625 0 Z M 10.5625 -126.78125 C 7.507812 -126.78125 4.984375 -127.773438 2.984375 -129.765625 C 0.992188 -131.765625 0 -134.289062 0 -137.34375 C 0 -140.394531 0.992188 -142.914062 2.984375 -144.90625 C 4.984375 -146.90625 7.507812 -147.90625 10.5625 -147.90625 C 13.613281 -147.90625 16.132812 -146.90625 18.125 -144.90625 C 20.125 -142.914062 21.125 -140.394531 21.125 -137.34375 C 21.125 -134.289062 20.125 -131.765625 18.125 -129.765625 C 16.132812 -127.773438 13.613281 -126.78125 10.5625 -126.78125 Z M 10.5625 -126.78125 "/></g></g></g><g fill="#38b6ff" fill-opacity="1"><g transform="translate(828.620776, 282.312469)"><g><path d="M 116.5625 -84.515625 C 113.507812 -84.515625 110.925781 -85.515625 108.8125 -87.515625 C 106.707031 -89.515625 105.65625 -92.039062 105.65625 -95.09375 C 105.65625 -98.144531 106.707031 -100.664062 108.8125 -102.65625 C 110.925781 -104.65625 113.507812 -105.65625 116.5625 -105.65625 L 137 -105.65625 C 140.050781 -105.65625 142.628906 -104.65625 144.734375 -102.65625 C 146.847656 -100.664062 147.90625 -98.144531 147.90625 -95.09375 C 147.90625 -92.039062 146.847656 -89.515625 144.734375 -87.515625 C 142.628906 -85.515625 140.050781 -84.515625 137 -84.515625 Z M 10.921875 0 C 7.867188 0 5.285156 -0.992188 3.171875 -2.984375 C 1.054688 -4.984375 0 -7.507812 0 -10.5625 C 0 -13.613281 1.054688 -16.132812 3.171875 -18.125 C 5.285156 -20.125 7.867188 -21.125 10.921875 -21.125 L 31.34375 -21.125 C 34.394531 -21.125 36.976562 -20.125 39.09375 -18.125 C 41.207031 -16.132812 42.265625 -13.613281 42.265625 -10.5625 C 42.265625 -7.507812 41.207031 -4.984375 39.09375 -2.984375 C 36.976562 -0.992188 34.394531 0 31.34375 0 Z M 52.828125 -21.125 C 49.773438 -21.125 47.25 -22.125 45.25 -24.125 C 43.257812 -26.125 42.265625 -28.648438 42.265625 -31.703125 C 42.265625 -34.753906 43.257812 -37.273438 45.25 -39.265625 C 47.25 -41.265625 49.773438 -42.265625 52.828125 -42.265625 C 55.878906 -42.265625 58.398438 -41.265625 60.390625 -39.265625 C 62.390625 -37.273438 63.390625 -34.753906 63.390625 -31.703125 C 63.390625 -28.648438 62.390625 -26.125 60.390625 -24.125 C 58.398438 -22.125 55.878906 -21.125 52.828125 -21.125 Z M 10.921875 -84.515625 C 7.867188 -84.515625 5.285156 -85.515625 3.171875 -87.515625 C 1.054688 -89.515625 0 -92.039062 0 -95.09375 C 0 -98.144531 1.054688 -100.664062 3.171875 -102.65625 C 5.285156 -104.65625 7.867188 -105.65625 10.921875 -105.65625 L 31.34375 -105.65625 C 34.394531 -105.65625 36.976562 -104.65625 39.09375 -102.65625 C 41.207031 -100.664062 42.265625 -98.144531 42.265625 -95.09375 C 42.265625 -92.039062 41.207031 -89.515625 39.09375 -87.515625 C 36.976562 -85.515625 34.394531 -84.515625 31.34375 -84.515625 Z M 52.828125 -63.390625 C 49.773438 -63.390625 47.25 -64.382812 45.25 -66.375 C 43.257812 -68.375 42.265625 -70.898438 42.265625 -73.953125 C 42.265625 -77.003906 43.257812 -79.523438 45.25 -81.515625 C 47.25 -83.515625 49.773438 -84.515625 52.828125 -84.515625 C 55.878906 -84.515625 58.398438 -83.515625 60.390625 -81.515625 C 62.390625 -79.523438 63.390625 -77.003906 63.390625 -73.953125 C 63.390625 -70.898438 62.390625 -68.375 60.390625 -66.375 C 58.398438 -64.382812 55.878906 -63.390625 52.828125 -63.390625 Z M 73.953125 -42.265625 C 70.898438 -42.265625 68.375 -43.257812 66.375 -45.25 C 64.382812 -47.25 63.390625 -49.773438 63.390625 -52.828125 C 63.390625 -55.878906 64.382812 -58.398438 66.375 -60.390625 C 68.375 -62.390625 70.898438 -63.390625 73.953125 -63.390625 C 77.003906 -63.390625 79.523438 -62.390625 81.515625 -60.390625 C 83.515625 -58.398438 84.515625 -55.878906 84.515625 -52.828125 C 84.515625 -49.773438 83.515625 -47.25 81.515625 -45.25 C 79.523438 -43.257812 77.003906 -42.265625 73.953125 -42.265625 Z M 95.09375 -21.125 C 92.039062 -21.125 89.515625 -22.125 87.515625 -24.125 C 85.515625 -26.125 84.515625 -28.648438 84.515625 -31.703125 C 84.515625 -34.753906 85.515625 -37.273438 87.515625 -39.265625 C 89.515625 -41.265625 92.039062 -42.265625 95.09375 -42.265625 C 98.144531 -42.265625 100.664062 -41.265625 102.65625 -39.265625 C 104.65625 -37.273438 105.65625 -34.753906 105.65625 -31.703125 C 105.65625 -28.648438 104.65625 -26.125 102.65625 -24.125 C 100.664062 -22.125 98.144531 -21.125 95.09375 -21.125 Z M 116.5625 0 C 113.507812 0 110.925781 -0.992188 108.8125 -2.984375 C 106.707031 -4.984375 105.65625 -7.507812 105.65625 -10.5625 C 105.65625 -13.613281 106.707031 -16.132812 108.8125 -18.125 C 110.925781 -20.125 113.507812 -21.125 116.5625 -21.125 L 137 -21.125 C 140.050781 -21.125 142.628906 -20.125 144.734375 -18.125 C 146.847656 -16.132812 147.90625 -13.613281 147.90625 -10.5625 C 147.90625 -7.507812 146.847656 -4.984375 144.734375 -2.984375 C 142.628906 -0.992188 140.050781 0 137 0 Z M 95.09375 -63.390625 C 92.039062 -63.390625 89.515625 -64.382812 87.515625 -66.375 C 85.515625 -68.375 84.515625 -70.898438 84.515625 -73.953125 C 84.515625 -77.003906 85.515625 -79.523438 87.515625 -81.515625 C 89.515625 -83.515625 92.039062 -84.515625 95.09375 -84.515625 C 98.144531 -84.515625 100.664062 -83.515625 102.65625 -81.515625 C 104.65625 -79.523438 105.65625 -77.003906 105.65625 -73.953125 C 105.65625 -70.898438 104.65625 -68.375 102.65625 -66.375 C 100.664062 -64.382812 98.144531 -63.390625 95.09375 -63.390625 Z M 95.09375 -63.390625 "/></g></g></g><path fill="#ffffff" d="M 186.273438 666.402344 L 808.910156 666.402344 L 808.910156 701.171875 L 186.273438 701.171875 Z M 186.273438 666.402344 " fill-opacity="1" fill-rule="nonzero"/><g fill="#ffffff" fill-opacity="1"><g transform="translate(186.272138, 648.475754)"><g><path d="M 73.953125 0 C 70.898438 0 68.375 -1.054688 66.375 -3.171875 C 64.382812 -5.285156 63.390625 -7.867188 63.390625 -10.921875 L 63.390625 -169.046875 L 10.921875 -169.046875 C 7.867188 -169.046875 5.285156 -170.039062 3.171875 -172.03125 C 1.054688 -174.03125 0 -176.554688 0 -179.609375 C 0 -182.660156 1.054688 -185.179688 3.171875 -187.171875 C 5.285156 -189.171875 7.867188 -190.171875 10.921875 -190.171875 L 137 -190.171875 C 140.050781 -190.171875 142.628906 -189.171875 144.734375 -187.171875 C 146.847656 -185.179688 147.90625 -182.660156 147.90625 -179.609375 C 147.90625 -176.554688 146.847656 -174.03125 144.734375 -172.03125 C 142.628906 -170.039062 140.050781 -169.046875 137 -169.046875 L 84.515625 -169.046875 L 84.515625 -10.921875 C 84.515625 -7.867188 83.515625 -5.285156 81.515625 -3.171875 C 79.523438 -1.054688 77.003906 0 73.953125 0 Z M 73.953125 0 "/></g></g></g><g fill="#ffffff" fill-opacity="1"><g transform="translate(310.235257, 648.475754)"><g><path d="M 10.5625 -21.125 C 7.507812 -21.125 4.984375 -22.179688 2.984375 -24.296875 C 0.992188 -26.410156 0 -28.992188 0 -32.046875 L 0 -73.609375 C 0 -76.660156 0.992188 -79.238281 2.984375 -81.34375 C 4.984375 -83.457031 7.507812 -84.515625 10.5625 -84.515625 C 13.613281 -84.515625 16.132812 -83.457031 18.125 -81.34375 C 20.125 -79.238281 21.125 -76.660156 21.125 -73.609375 L 21.125 -63.390625 L 115.859375 -63.390625 C 118.910156 -63.390625 121.492188 -62.390625 123.609375 -60.390625 C 125.722656 -58.398438 126.78125 -55.878906 126.78125 -52.828125 C 126.78125 -49.773438 125.722656 -47.25 123.609375 -45.25 C 121.492188 -43.257812 118.910156 -42.265625 115.859375 -42.265625 L 21.125 -42.265625 L 21.125 -32.046875 C 21.125 -28.992188 20.125 -26.410156 18.125 -24.296875 C 16.132812 -22.179688 13.613281 -21.125 10.5625 -21.125 Z M 32.046875 0 C 28.992188 0 26.410156 -0.992188 24.296875 -2.984375 C 22.179688 -4.984375 21.125 -7.507812 21.125 -10.5625 C 21.125 -13.613281 22.179688 -16.132812 24.296875 -18.125 C 26.410156 -20.125 28.992188 -21.125 32.046875 -21.125 L 137 -21.125 C 140.050781 -21.125 142.628906 -20.125 144.734375 -18.125 C 146.847656 -16.132812 147.90625 -13.613281 147.90625 -10.5625 C 147.90625 -7.507812 146.847656 -4.984375 144.734375 -2.984375 C 142.628906 -0.992188 140.050781 0 137 0 Z M 32.046875 -84.515625 C 28.992188 -84.515625 26.410156 -85.515625 24.296875 -87.515625 C 22.179688 -89.515625 21.125 -92.039062 21.125 -95.09375 C 21.125 -98.144531 22.179688 -100.664062 24.296875 -102.65625 C 26.410156 -104.65625 28.992188 -105.65625 32.046875 -105.65625 L 115.859375 -105.65625 C 118.910156 -105.65625 121.492188 -104.65625 123.609375 -102.65625 C 125.722656 -100.664062 126.78125 -98.144531 126.78125 -95.09375 C 126.78125 -92.039062 125.722656 -89.515625 123.609375 -87.515625 C 121.492188 -85.515625 118.910156 -84.515625 115.859375 -84.515625 Z M 137.34375 -63.390625 C 134.289062 -63.390625 131.765625 -64.382812 129.765625 -66.375 C 127.773438 -68.375 126.78125 -70.898438 126.78125 -73.953125 C 126.78125 -77.003906 127.773438 -79.523438 129.765625 -81.515625 C 131.765625 -83.515625 134.289062 -84.515625 137.34375 -84.515625 C 140.394531 -84.515625 142.914062 -83.515625 144.90625 -81.515625 C 146.90625 -79.523438 147.90625 -77.003906 147.90625 -73.953125 C 147.90625 -70.898438 146.90625 -68.375 144.90625 -66.375 C 142.914062 -64.382812 140.394531 -63.390625 137.34375 -63.390625 Z M 137.34375 -63.390625 "/></g></g></g><g fill="#ffffff" fill-opacity="1"><g transform="translate(476.458617, 648.475754)"><g><path d="M 32.046875 -84.515625 C 28.992188 -84.515625 26.410156 -85.515625 24.296875 -87.515625 C 22.179688 -89.515625 21.125 -92.039062 21.125 -95.09375 C 21.125 -98.144531 22.179688 -100.664062 24.296875 -102.65625 C 26.410156 -104.65625 28.992188 -105.65625 32.046875 -105.65625 L 137 -105.65625 C 140.050781 -105.65625 142.628906 -104.65625 144.734375 -102.65625 C 146.847656 -100.664062 147.90625 -98.144531 147.90625 -95.09375 C 147.90625 -92.039062 146.847656 -89.515625 144.734375 -87.515625 C 142.628906 -85.515625 140.050781 -84.515625 137 -84.515625 Z M 10.5625 -21.125 C 7.507812 -21.125 4.984375 -22.179688 2.984375 -24.296875 C 0.992188 -26.410156 0 -28.992188 0 -32.046875 L 0 -73.609375 C 0 -76.660156 0.992188 -79.238281 2.984375 -81.34375 C 4.984375 -83.457031 7.507812 -84.515625 10.5625 -84.515625 C 13.613281 -84.515625 16.132812 -83.457031 18.125 -81.34375 C 20.125 -79.238281 21.125 -76.660156 21.125 -73.609375 L 21.125 -32.046875 C 21.125 -28.992188 20.125 -26.410156 18.125 -24.296875 C 16.132812 -22.179688 13.613281 -21.125 10.5625 -21.125 Z M 32.046875 0 C 28.992188 0 26.410156 -0.992188 24.296875 -2.984375 C 22.179688 -4.984375 21.125 -7.507812 21.125 -10.5625 C 21.125 -13.613281 22.179688 -16.132812 24.296875 -18.125 C 26.410156 -20.125 28.992188 -21.125 32.046875 -21.125 L 137 -21.125 C 140.050781 -21.125 142.628906 -20.125 144.734375 -18.125 C 146.847656 -16.132812 147.90625 -13.613281 147.90625 -10.5625 C 147.90625 -7.507812 146.847656 -4.984375 144.734375 -2.984375 C 142.628906 -0.992188 140.050781 0 137 0 Z M 32.046875 0 "/></g></g></g><g fill="#ffffff" fill-opacity="1"><g transform="translate(642.681977, 648.475754)"><g><path d="M 10.5625 0 C 7.507812 0 4.984375 -1.054688 2.984375 -3.171875 C 0.992188 -5.285156 0 -7.867188 0 -10.921875 L 0 -179.25 C 0 -182.300781 0.992188 -184.882812 2.984375 -187 C 4.984375 -189.113281 7.507812 -190.171875 10.5625 -190.171875 C 13.613281 -190.171875 16.132812 -189.113281 18.125 -187 C 20.125 -184.882812 21.125 -182.300781 21.125 -179.25 L 21.125 -105.65625 L 115.859375 -105.65625 C 118.910156 -105.65625 121.492188 -104.65625 123.609375 -102.65625 C 125.722656 -100.664062 126.78125 -98.144531 126.78125 -95.09375 C 126.78125 -92.039062 125.722656 -89.515625 123.609375 -87.515625 C 121.492188 -85.515625 118.910156 -84.515625 115.859375 -84.515625 L 21.125 -84.515625 L 21.125 -10.921875 C 21.125 -7.867188 20.125 -5.285156 18.125 -3.171875 C 16.132812 -1.054688 13.613281 0 10.5625 0 Z M 137.34375 0 C 134.289062 0 131.765625 -1.054688 129.765625 -3.171875 C 127.773438 -5.285156 126.78125 -7.867188 126.78125 -10.921875 L 126.78125 -73.609375 C 126.78125 -76.660156 127.773438 -79.238281 129.765625 -81.34375 C 131.765625 -83.457031 134.289062 -84.515625 137.34375 -84.515625 C 140.394531 -84.515625 142.914062 -83.457031 144.90625 -81.34375 C 146.90625 -79.238281 147.90625 -76.660156 147.90625 -73.609375 L 147.90625 -10.921875 C 147.90625 -7.867188 146.90625 -5.285156 144.90625 -3.171875 C 142.914062 -1.054688 140.394531 0 137.34375 0 Z M 137.34375 0 "/></g></g></g></g></g></svg>