<svg xmlns="http://www.w3.org/2000/svg" xmlns:xlink="http://www.w3.org/1999/xlink" width="2000" zoomAndPan="magnify" viewBox="0 0 1500 299.999988" height="400" preserveAspectRatio="xMidYMid meet" version="1.0"><defs><g/></defs><path fill="#18b6ff" d="M 6.585938 222.226562 L 898.675781 222.226562 L 898.675781 252.976562 L 6.585938 252.976562 Z M 6.585938 222.226562 " fill-opacity="1" fill-rule="nonzero"/><g fill="#18b6ff" fill-opacity="1"><g transform="translate(6.585967, 206.475658)"><g><path d="M 28.1875 -148.6875 C 25.5 -148.6875 23.222656 -149.5625 21.359375 -151.3125 C 19.503906 -153.070312 18.578125 -155.289062 18.578125 -157.96875 C 18.578125 -160.65625 19.503906 -162.875 21.359375 -164.625 C 23.222656 -166.382812 25.5 -167.265625 28.1875 -167.265625 L 101.90625 -167.265625 C 104.59375 -167.265625 106.863281 -166.382812 108.71875 -164.625 C 110.582031 -162.875 111.515625 -160.65625 111.515625 -157.96875 C 111.515625 -155.289062 110.582031 -153.070312 108.71875 -151.3125 C 106.863281 -149.5625 104.59375 -148.6875 101.90625 -148.6875 Z M 9.296875 -18.578125 C 6.609375 -18.578125 4.382812 -19.453125 2.625 -21.203125 C 0.875 -22.960938 0 -25.1875 0 -27.875 C 0 -30.5625 0.875 -32.78125 2.625 -34.53125 C 4.382812 -36.289062 6.609375 -37.171875 9.296875 -37.171875 C 11.972656 -37.171875 14.1875 -36.289062 15.9375 -34.53125 C 17.695312 -32.78125 18.578125 -30.5625 18.578125 -27.875 C 18.578125 -25.1875 17.695312 -22.960938 15.9375 -21.203125 C 14.1875 -19.453125 11.972656 -18.578125 9.296875 -18.578125 Z M 28.1875 0 C 25.5 0 23.222656 -0.875 21.359375 -2.625 C 19.503906 -4.382812 18.578125 -6.609375 18.578125 -9.296875 C 18.578125 -11.972656 19.503906 -14.1875 21.359375 -15.9375 C 23.222656 -17.695312 25.5 -18.578125 28.1875 -18.578125 L 101.90625 -18.578125 C 104.59375 -18.578125 106.863281 -17.695312 108.71875 -15.9375 C 110.582031 -14.1875 111.515625 -11.972656 111.515625 -9.296875 C 111.515625 -6.609375 110.582031 -4.382812 108.71875 -2.625 C 106.863281 -0.875 104.59375 0 101.90625 0 Z M 9.296875 -92.921875 C 6.609375 -92.921875 4.382812 -93.847656 2.625 -95.703125 C 0.875 -97.566406 0 -99.84375 0 -102.53125 L 0 -139.078125 C 0 -141.765625 0.875 -144.035156 2.625 -145.890625 C 4.382812 -147.753906 6.609375 -148.6875 9.296875 -148.6875 C 11.972656 -148.6875 14.1875 -147.753906 15.9375 -145.890625 C 17.695312 -144.035156 18.578125 -141.765625 18.578125 -139.078125 L 18.578125 -102.53125 C 18.578125 -99.84375 17.695312 -97.566406 15.9375 -95.703125 C 14.1875 -93.847656 11.972656 -92.921875 9.296875 -92.921875 Z M 28.1875 -74.34375 C 25.5 -74.34375 23.222656 -75.21875 21.359375 -76.96875 C 19.503906 -78.726562 18.578125 -80.945312 18.578125 -83.625 C 18.578125 -86.3125 19.503906 -88.53125 21.359375 -90.28125 C 23.222656 -92.039062 25.5 -92.921875 28.1875 -92.921875 L 101.90625 -92.921875 C 104.59375 -92.921875 106.863281 -92.039062 108.71875 -90.28125 C 110.582031 -88.53125 111.515625 -86.3125 111.515625 -83.625 C 111.515625 -80.945312 110.582031 -78.726562 108.71875 -76.96875 C 106.863281 -75.21875 104.59375 -74.34375 101.90625 -74.34375 Z M 120.796875 -18.578125 C 118.117188 -18.578125 115.898438 -19.503906 114.140625 -21.359375 C 112.390625 -23.222656 111.515625 -25.5 111.515625 -28.1875 L 111.515625 -64.734375 C 111.515625 -67.421875 112.390625 -69.691406 114.140625 -71.546875 C 115.898438 -73.410156 118.117188 -74.34375 120.796875 -74.34375 C 123.484375 -74.34375 125.703125 -73.410156 127.453125 -71.546875 C 129.210938 -69.691406 130.09375 -67.421875 130.09375 -64.734375 L 130.09375 -28.1875 C 130.09375 -25.5 129.210938 -23.222656 127.453125 -21.359375 C 125.703125 -19.503906 123.484375 -18.578125 120.796875 -18.578125 Z M 120.796875 -130.09375 C 118.117188 -130.09375 115.898438 -130.96875 114.140625 -132.71875 C 112.390625 -134.476562 111.515625 -136.703125 111.515625 -139.390625 C 111.515625 -142.078125 112.390625 -144.296875 114.140625 -146.046875 C 115.898438 -147.804688 118.117188 -148.6875 120.796875 -148.6875 C 123.484375 -148.6875 125.703125 -147.804688 127.453125 -146.046875 C 129.210938 -144.296875 130.09375 -142.078125 130.09375 -139.390625 C 130.09375 -136.703125 129.210938 -134.476562 127.453125 -132.71875 C 125.703125 -130.96875 123.484375 -130.09375 120.796875 -130.09375 Z M 120.796875 -130.09375 "/></g></g></g><g fill="#18b6ff" fill-opacity="1"><g transform="translate(155.265745, 206.475658)"><g><path d="M 46.46875 -18.578125 C 43.78125 -18.578125 41.554688 -19.503906 39.796875 -21.359375 C 38.046875 -23.222656 37.171875 -25.5 37.171875 -28.1875 L 37.171875 -74.34375 L 9.609375 -74.34375 C 6.921875 -74.34375 4.644531 -75.21875 2.78125 -76.96875 C 0.925781 -78.726562 0 -80.945312 0 -83.625 C 0 -86.3125 0.925781 -88.53125 2.78125 -90.28125 C 4.644531 -92.039062 6.921875 -92.921875 9.609375 -92.921875 L 37.171875 -92.921875 L 37.171875 -157.65625 C 37.171875 -160.34375 38.046875 -162.613281 39.796875 -164.46875 C 41.554688 -166.332031 43.78125 -167.265625 46.46875 -167.265625 C 49.144531 -167.265625 51.359375 -166.332031 53.109375 -164.46875 C 54.867188 -162.613281 55.75 -160.34375 55.75 -157.65625 L 55.75 -92.921875 L 83.328125 -92.921875 C 86.003906 -92.921875 88.269531 -92.039062 90.125 -90.28125 C 91.988281 -88.53125 92.921875 -86.3125 92.921875 -83.625 C 92.921875 -80.945312 91.988281 -78.726562 90.125 -76.96875 C 88.269531 -75.21875 86.003906 -74.34375 83.328125 -74.34375 L 55.75 -74.34375 L 55.75 -28.1875 C 55.75 -25.5 54.867188 -23.222656 53.109375 -21.359375 C 51.359375 -19.503906 49.144531 -18.578125 46.46875 -18.578125 Z M 65.359375 0 C 62.671875 0 60.394531 -0.875 58.53125 -2.625 C 56.675781 -4.382812 55.75 -6.609375 55.75 -9.296875 C 55.75 -11.972656 56.675781 -14.1875 58.53125 -15.9375 C 60.394531 -17.695312 62.671875 -18.578125 65.359375 -18.578125 L 83.328125 -18.578125 C 86.003906 -18.578125 88.269531 -17.695312 90.125 -15.9375 C 91.988281 -14.1875 92.921875 -11.972656 92.921875 -9.296875 C 92.921875 -6.609375 91.988281 -4.382812 90.125 -2.625 C 88.269531 -0.875 86.003906 0 83.328125 0 Z M 65.359375 0 "/></g></g></g><g fill="#18b6ff" fill-opacity="1"><g transform="translate(266.77557, 206.475658)"><g><path d="M 9.296875 0 C 6.609375 0 4.382812 -0.925781 2.625 -2.78125 C 0.875 -4.644531 0 -6.921875 0 -9.609375 L 0 -83.328125 C 0 -86.003906 0.875 -88.269531 2.625 -90.125 C 4.382812 -91.988281 6.609375 -92.921875 9.296875 -92.921875 C 11.972656 -92.921875 14.1875 -91.988281 15.9375 -90.125 C 17.695312 -88.269531 18.578125 -86.003906 18.578125 -83.328125 L 18.578125 -74.34375 L 27.5625 -74.34375 C 30.25 -74.34375 32.519531 -73.460938 34.375 -71.703125 C 36.238281 -69.953125 37.171875 -67.734375 37.171875 -65.046875 C 37.171875 -62.359375 36.238281 -60.132812 34.375 -58.375 C 32.519531 -56.625 30.25 -55.75 27.5625 -55.75 L 18.578125 -55.75 L 18.578125 -9.609375 C 18.578125 -6.921875 17.695312 -4.644531 15.9375 -2.78125 C 14.1875 -0.925781 11.972656 0 9.296875 0 Z M 46.765625 -74.34375 C 44.085938 -74.34375 41.816406 -75.21875 39.953125 -76.96875 C 38.097656 -78.726562 37.171875 -80.945312 37.171875 -83.625 C 37.171875 -86.3125 38.097656 -88.53125 39.953125 -90.28125 C 41.816406 -92.039062 44.085938 -92.921875 46.765625 -92.921875 L 101.90625 -92.921875 C 104.59375 -92.921875 106.863281 -92.039062 108.71875 -90.28125 C 110.582031 -88.53125 111.515625 -86.3125 111.515625 -83.625 C 111.515625 -80.945312 110.582031 -78.726562 108.71875 -76.96875 C 106.863281 -75.21875 104.59375 -74.34375 101.90625 -74.34375 Z M 120.796875 -55.75 C 118.117188 -55.75 115.898438 -56.625 114.140625 -58.375 C 112.390625 -60.132812 111.515625 -62.359375 111.515625 -65.046875 C 111.515625 -67.734375 112.390625 -69.953125 114.140625 -71.703125 C 115.898438 -73.460938 118.117188 -74.34375 120.796875 -74.34375 C 123.484375 -74.34375 125.703125 -73.460938 127.453125 -71.703125 C 129.210938 -69.953125 130.09375 -67.734375 130.09375 -65.046875 C 130.09375 -62.359375 129.210938 -60.132812 127.453125 -58.375 C 125.703125 -56.625 123.484375 -55.75 120.796875 -55.75 Z M 120.796875 -55.75 "/></g></g></g><g fill="#18b6ff" fill-opacity="1"><g transform="translate(415.455325, 206.475658)"><g><path d="M 28.1875 0 C 25.5 0 23.222656 -0.875 21.359375 -2.625 C 19.503906 -4.382812 18.578125 -6.609375 18.578125 -9.296875 C 18.578125 -11.972656 19.503906 -14.1875 21.359375 -15.9375 C 23.222656 -17.695312 25.5 -18.578125 28.1875 -18.578125 L 101.90625 -18.578125 C 104.59375 -18.578125 106.863281 -17.695312 108.71875 -15.9375 C 110.582031 -14.1875 111.515625 -11.972656 111.515625 -9.296875 C 111.515625 -6.609375 110.582031 -4.382812 108.71875 -2.625 C 106.863281 -0.875 104.59375 0 101.90625 0 Z M 9.296875 -18.578125 C 6.609375 -18.578125 4.382812 -19.503906 2.625 -21.359375 C 0.875 -23.222656 0 -25.5 0 -28.1875 L 0 -83.328125 C 0 -86.003906 0.875 -88.269531 2.625 -90.125 C 4.382812 -91.988281 6.609375 -92.921875 9.296875 -92.921875 C 11.972656 -92.921875 14.1875 -91.988281 15.9375 -90.125 C 17.695312 -88.269531 18.578125 -86.003906 18.578125 -83.328125 L 18.578125 -28.1875 C 18.578125 -25.5 17.695312 -23.222656 15.9375 -21.359375 C 14.1875 -19.503906 11.972656 -18.578125 9.296875 -18.578125 Z M 120.796875 -18.578125 C 118.117188 -18.578125 115.898438 -19.503906 114.140625 -21.359375 C 112.390625 -23.222656 111.515625 -25.5 111.515625 -28.1875 L 111.515625 -83.328125 C 111.515625 -86.003906 112.390625 -88.269531 114.140625 -90.125 C 115.898438 -91.988281 118.117188 -92.921875 120.796875 -92.921875 C 123.484375 -92.921875 125.703125 -91.988281 127.453125 -90.125 C 129.210938 -88.269531 130.09375 -86.003906 130.09375 -83.328125 L 130.09375 -28.1875 C 130.09375 -25.5 129.210938 -23.222656 127.453125 -21.359375 C 125.703125 -19.503906 123.484375 -18.578125 120.796875 -18.578125 Z M 120.796875 -18.578125 "/></g></g></g><g fill="#18b6ff" fill-opacity="1"><g transform="translate(564.135126, 206.475658)"><g><path d="M 9.296875 0 C 6.609375 0 4.382812 -0.925781 2.625 -2.78125 C 0.875 -4.644531 0 -6.921875 0 -9.609375 L 0 -83.328125 C 0 -86.003906 0.925781 -88.269531 2.78125 -90.125 C 4.644531 -91.988281 6.921875 -92.921875 9.609375 -92.921875 L 101.90625 -92.921875 C 104.59375 -92.921875 106.863281 -92.039062 108.71875 -90.28125 C 110.582031 -88.53125 111.515625 -86.3125 111.515625 -83.625 C 111.515625 -80.945312 110.582031 -78.726562 108.71875 -76.96875 C 106.863281 -75.21875 104.59375 -74.34375 101.90625 -74.34375 L 18.578125 -74.34375 L 18.578125 -9.609375 C 18.578125 -6.921875 17.695312 -4.644531 15.9375 -2.78125 C 14.1875 -0.925781 11.972656 0 9.296875 0 Z M 120.796875 0 C 118.117188 0 115.898438 -0.925781 114.140625 -2.78125 C 112.390625 -4.644531 111.515625 -6.921875 111.515625 -9.609375 L 111.515625 -64.734375 C 111.515625 -67.421875 112.390625 -69.691406 114.140625 -71.546875 C 115.898438 -73.410156 118.117188 -74.34375 120.796875 -74.34375 C 123.484375 -74.34375 125.703125 -73.410156 127.453125 -71.546875 C 129.210938 -69.691406 130.09375 -67.421875 130.09375 -64.734375 L 130.09375 -9.609375 C 130.09375 -6.921875 129.210938 -4.644531 127.453125 -2.78125 C 125.703125 -0.925781 123.484375 0 120.796875 0 Z M 120.796875 0 "/></g></g></g><g fill="#18b6ff" fill-opacity="1"><g transform="translate(712.814881, 206.475658)"><g><path d="M 9.296875 0 C 6.609375 0 4.382812 -0.925781 2.625 -2.78125 C 0.875 -4.644531 0 -6.921875 0 -9.609375 L 0 -83.328125 C 0 -86.003906 0.875 -88.269531 2.625 -90.125 C 4.382812 -91.988281 6.609375 -92.921875 9.296875 -92.921875 C 11.972656 -92.921875 14.1875 -91.988281 15.9375 -90.125 C 17.695312 -88.269531 18.578125 -86.003906 18.578125 -83.328125 L 18.578125 -9.609375 C 18.578125 -6.921875 17.695312 -4.644531 15.9375 -2.78125 C 14.1875 -0.925781 11.972656 0 9.296875 0 Z M 9.296875 -111.515625 C 6.609375 -111.515625 4.382812 -112.390625 2.625 -114.140625 C 0.875 -115.898438 0 -118.117188 0 -120.796875 C 0 -123.484375 0.875 -125.703125 2.625 -127.453125 C 4.382812 -129.210938 6.609375 -130.09375 9.296875 -130.09375 C 11.972656 -130.09375 14.1875 -129.210938 15.9375 -127.453125 C 17.695312 -125.703125 18.578125 -123.484375 18.578125 -120.796875 C 18.578125 -118.117188 17.695312 -115.898438 15.9375 -114.140625 C 14.1875 -112.390625 11.972656 -111.515625 9.296875 -111.515625 Z M 9.296875 -111.515625 "/></g></g><g transform="translate(749.984878, 206.475658)"><g><path d="M 102.53125 -74.34375 C 99.84375 -74.34375 97.566406 -75.21875 95.703125 -76.96875 C 93.847656 -78.726562 92.921875 -80.945312 92.921875 -83.625 C 92.921875 -86.3125 93.847656 -88.53125 95.703125 -90.28125 C 97.566406 -92.039062 99.84375 -92.921875 102.53125 -92.921875 L 120.5 -92.921875 C 123.175781 -92.921875 125.441406 -92.039062 127.296875 -90.28125 C 129.160156 -88.53125 130.09375 -86.3125 130.09375 -83.625 C 130.09375 -80.945312 129.160156 -78.726562 127.296875 -76.96875 C 125.441406 -75.21875 123.175781 -74.34375 120.5 -74.34375 Z M 9.609375 0 C 6.921875 0 4.644531 -0.875 2.78125 -2.625 C 0.925781 -4.382812 0 -6.609375 0 -9.296875 C 0 -11.972656 0.925781 -14.1875 2.78125 -15.9375 C 4.644531 -17.695312 6.921875 -18.578125 9.609375 -18.578125 L 27.5625 -18.578125 C 30.25 -18.578125 32.519531 -17.695312 34.375 -15.9375 C 36.238281 -14.1875 37.171875 -11.972656 37.171875 -9.296875 C 37.171875 -6.609375 36.238281 -4.382812 34.375 -2.625 C 32.519531 -0.875 30.25 0 27.5625 0 Z M 46.46875 -18.578125 C 43.78125 -18.578125 41.554688 -19.453125 39.796875 -21.203125 C 38.046875 -22.960938 37.171875 -25.1875 37.171875 -27.875 C 37.171875 -30.5625 38.046875 -32.78125 39.796875 -34.53125 C 41.554688 -36.289062 43.78125 -37.171875 46.46875 -37.171875 C 49.144531 -37.171875 51.359375 -36.289062 53.109375 -34.53125 C 54.867188 -32.78125 55.75 -30.5625 55.75 -27.875 C 55.75 -25.1875 54.867188 -22.960938 53.109375 -21.203125 C 51.359375 -19.453125 49.144531 -18.578125 46.46875 -18.578125 Z M 9.609375 -74.34375 C 6.921875 -74.34375 4.644531 -75.21875 2.78125 -76.96875 C 0.925781 -78.726562 0 -80.945312 0 -83.625 C 0 -86.3125 0.925781 -88.53125 2.78125 -90.28125 C 4.644531 -92.039062 6.921875 -92.921875 9.609375 -92.921875 L 27.5625 -92.921875 C 30.25 -92.921875 32.519531 -92.039062 34.375 -90.28125 C 36.238281 -88.53125 37.171875 -86.3125 37.171875 -83.625 C 37.171875 -80.945312 36.238281 -78.726562 34.375 -76.96875 C 32.519531 -75.21875 30.25 -74.34375 27.5625 -74.34375 Z M 46.46875 -55.75 C 43.78125 -55.75 41.554688 -56.625 39.796875 -58.375 C 38.046875 -60.132812 37.171875 -62.359375 37.171875 -65.046875 C 37.171875 -67.734375 38.046875 -69.953125 39.796875 -71.703125 C 41.554688 -73.460938 43.78125 -74.34375 46.46875 -74.34375 C 49.144531 -74.34375 51.359375 -73.460938 53.109375 -71.703125 C 54.867188 -69.953125 55.75 -67.734375 55.75 -65.046875 C 55.75 -62.359375 54.867188 -60.132812 53.109375 -58.375 C 51.359375 -56.625 49.144531 -55.75 46.46875 -55.75 Z M 65.046875 -37.171875 C 62.359375 -37.171875 60.132812 -38.046875 58.375 -39.796875 C 56.625 -41.554688 55.75 -43.78125 55.75 -46.46875 C 55.75 -49.144531 56.625 -51.359375 58.375 -53.109375 C 60.132812 -54.867188 62.359375 -55.75 65.046875 -55.75 C 67.734375 -55.75 69.953125 -54.867188 71.703125 -53.109375 C 73.460938 -51.359375 74.34375 -49.144531 74.34375 -46.46875 C 74.34375 -43.78125 73.460938 -41.554688 71.703125 -39.796875 C 69.953125 -38.046875 67.734375 -37.171875 65.046875 -37.171875 Z M 83.625 -18.578125 C 80.945312 -18.578125 78.726562 -19.453125 76.96875 -21.203125 C 75.21875 -22.960938 74.34375 -25.1875 74.34375 -27.875 C 74.34375 -30.5625 75.21875 -32.78125 76.96875 -34.53125 C 78.726562 -36.289062 80.945312 -37.171875 83.625 -37.171875 C 86.3125 -37.171875 88.53125 -36.289062 90.28125 -34.53125 C 92.039062 -32.78125 92.921875 -30.5625 92.921875 -27.875 C 92.921875 -25.1875 92.039062 -22.960938 90.28125 -21.203125 C 88.53125 -19.453125 86.3125 -18.578125 83.625 -18.578125 Z M 102.53125 0 C 99.84375 0 97.566406 -0.875 95.703125 -2.625 C 93.847656 -4.382812 92.921875 -6.609375 92.921875 -9.296875 C 92.921875 -11.972656 93.847656 -14.1875 95.703125 -15.9375 C 97.566406 -17.695312 99.84375 -18.578125 102.53125 -18.578125 L 120.5 -18.578125 C 123.175781 -18.578125 125.441406 -17.695312 127.296875 -15.9375 C 129.160156 -14.1875 130.09375 -11.972656 130.09375 -9.296875 C 130.09375 -6.609375 129.160156 -4.382812 127.296875 -2.625 C 125.441406 -0.875 123.175781 0 120.5 0 Z M 83.625 -55.75 C 80.945312 -55.75 78.726562 -56.625 76.96875 -58.375 C 75.21875 -60.132812 74.34375 -62.359375 74.34375 -65.046875 C 74.34375 -67.734375 75.21875 -69.953125 76.96875 -71.703125 C 78.726562 -73.460938 80.945312 -74.34375 83.625 -74.34375 C 86.3125 -74.34375 88.53125 -73.460938 90.28125 -71.703125 C 92.039062 -69.953125 92.921875 -67.734375 92.921875 -65.046875 C 92.921875 -62.359375 92.039062 -60.132812 90.28125 -58.375 C 88.53125 -56.625 86.3125 -55.75 83.625 -55.75 Z M 83.625 -55.75 "/></g></g></g><path fill="#ffffff" d="M 898.675781 222.226562 L 1493.402344 222.226562 L 1493.402344 252.976562 L 898.675781 252.976562 Z M 898.675781 222.226562 " fill-opacity="1" fill-rule="nonzero"/><g fill="#ffffff" fill-opacity="1"><g transform="translate(898.675742, 206.475658)"><g><path d="M 65.046875 0 C 62.359375 0 60.132812 -0.925781 58.375 -2.78125 C 56.625 -4.644531 55.75 -6.921875 55.75 -9.609375 L 55.75 -148.6875 L 9.609375 -148.6875 C 6.921875 -148.6875 4.644531 -149.5625 2.78125 -151.3125 C 0.925781 -153.070312 0 -155.289062 0 -157.96875 C 0 -160.65625 0.925781 -162.875 2.78125 -164.625 C 4.644531 -166.382812 6.921875 -167.265625 9.609375 -167.265625 L 120.5 -167.265625 C 123.175781 -167.265625 125.441406 -166.382812 127.296875 -164.625 C 129.160156 -162.875 130.09375 -160.65625 130.09375 -157.96875 C 130.09375 -155.289062 129.160156 -153.070312 127.296875 -151.3125 C 125.441406 -149.5625 123.175781 -148.6875 120.5 -148.6875 L 74.34375 -148.6875 L 74.34375 -9.609375 C 74.34375 -6.921875 73.460938 -4.644531 71.703125 -2.78125 C 69.953125 -0.925781 67.734375 0 65.046875 0 Z M 65.046875 0 "/></g></g></g><g fill="#ffffff" fill-opacity="1"><g transform="translate(1047.355519, 206.475658)"><g><path d="M 9.296875 -18.578125 C 6.609375 -18.578125 4.382812 -19.503906 2.625 -21.359375 C 0.875 -23.222656 0 -25.5 0 -28.1875 L 0 -64.734375 C 0 -67.421875 0.875 -69.691406 2.625 -71.546875 C 4.382812 -73.410156 6.609375 -74.34375 9.296875 -74.34375 C 11.972656 -74.34375 14.1875 -73.410156 15.9375 -71.546875 C 17.695312 -69.691406 18.578125 -67.421875 18.578125 -64.734375 L 18.578125 -55.75 L 101.90625 -55.75 C 104.59375 -55.75 106.863281 -54.867188 108.71875 -53.109375 C 110.582031 -51.359375 111.515625 -49.144531 111.515625 -46.46875 C 111.515625 -43.78125 110.582031 -41.554688 108.71875 -39.796875 C 106.863281 -38.046875 104.59375 -37.171875 101.90625 -37.171875 L 18.578125 -37.171875 L 18.578125 -28.1875 C 18.578125 -25.5 17.695312 -23.222656 15.9375 -21.359375 C 14.1875 -19.503906 11.972656 -18.578125 9.296875 -18.578125 Z M 28.1875 0 C 25.5 0 23.222656 -0.875 21.359375 -2.625 C 19.503906 -4.382812 18.578125 -6.609375 18.578125 -9.296875 C 18.578125 -11.972656 19.503906 -14.1875 21.359375 -15.9375 C 23.222656 -17.695312 25.5 -18.578125 28.1875 -18.578125 L 120.5 -18.578125 C 123.175781 -18.578125 125.441406 -17.695312 127.296875 -15.9375 C 129.160156 -14.1875 130.09375 -11.972656 130.09375 -9.296875 C 130.09375 -6.609375 129.160156 -4.382812 127.296875 -2.625 C 125.441406 -0.875 123.175781 0 120.5 0 Z M 28.1875 -74.34375 C 25.5 -74.34375 23.222656 -75.21875 21.359375 -76.96875 C 19.503906 -78.726562 18.578125 -80.945312 18.578125 -83.625 C 18.578125 -86.3125 19.503906 -88.53125 21.359375 -90.28125 C 23.222656 -92.039062 25.5 -92.921875 28.1875 -92.921875 L 101.90625 -92.921875 C 104.59375 -92.921875 106.863281 -92.039062 108.71875 -90.28125 C 110.582031 -88.53125 111.515625 -86.3125 111.515625 -83.625 C 111.515625 -80.945312 110.582031 -78.726562 108.71875 -76.96875 C 106.863281 -75.21875 104.59375 -74.34375 101.90625 -74.34375 Z M 120.796875 -55.75 C 118.117188 -55.75 115.898438 -56.625 114.140625 -58.375 C 112.390625 -60.132812 111.515625 -62.359375 111.515625 -65.046875 C 111.515625 -67.734375 112.390625 -69.953125 114.140625 -71.703125 C 115.898438 -73.460938 118.117188 -74.34375 120.796875 -74.34375 C 123.484375 -74.34375 125.703125 -73.460938 127.453125 -71.703125 C 129.210938 -69.953125 130.09375 -67.734375 130.09375 -65.046875 C 130.09375 -62.359375 129.210938 -60.132812 127.453125 -58.375 C 125.703125 -56.625 123.484375 -55.75 120.796875 -55.75 Z M 120.796875 -55.75 "/></g></g></g><g fill="#ffffff" fill-opacity="1"><g transform="translate(1196.035297, 206.475658)"><g><path d="M 28.1875 -74.34375 C 25.5 -74.34375 23.222656 -75.21875 21.359375 -76.96875 C 19.503906 -78.726562 18.578125 -80.945312 18.578125 -83.625 C 18.578125 -86.3125 19.503906 -88.53125 21.359375 -90.28125 C 23.222656 -92.039062 25.5 -92.921875 28.1875 -92.921875 L 120.5 -92.921875 C 123.175781 -92.921875 125.441406 -92.039062 127.296875 -90.28125 C 129.160156 -88.53125 130.09375 -86.3125 130.09375 -83.625 C 130.09375 -80.945312 129.160156 -78.726562 127.296875 -76.96875 C 125.441406 -75.21875 123.175781 -74.34375 120.5 -74.34375 Z M 9.296875 -18.578125 C 6.609375 -18.578125 4.382812 -19.503906 2.625 -21.359375 C 0.875 -23.222656 0 -25.5 0 -28.1875 L 0 -64.734375 C 0 -67.421875 0.875 -69.691406 2.625 -71.546875 C 4.382812 -73.410156 6.609375 -74.34375 9.296875 -74.34375 C 11.972656 -74.34375 14.1875 -73.410156 15.9375 -71.546875 C 17.695312 -69.691406 18.578125 -67.421875 18.578125 -64.734375 L 18.578125 -28.1875 C 18.578125 -25.5 17.695312 -23.222656 15.9375 -21.359375 C 14.1875 -19.503906 11.972656 -18.578125 9.296875 -18.578125 Z M 28.1875 0 C 25.5 0 23.222656 -0.875 21.359375 -2.625 C 19.503906 -4.382812 18.578125 -6.609375 18.578125 -9.296875 C 18.578125 -11.972656 19.503906 -14.1875 21.359375 -15.9375 C 23.222656 -17.695312 25.5 -18.578125 28.1875 -18.578125 L 120.5 -18.578125 C 123.175781 -18.578125 125.441406 -17.695312 127.296875 -15.9375 C 129.160156 -14.1875 130.09375 -11.972656 130.09375 -9.296875 C 130.09375 -6.609375 129.160156 -4.382812 127.296875 -2.625 C 125.441406 -0.875 123.175781 0 120.5 0 Z M 28.1875 0 "/></g></g></g><g fill="#ffffff" fill-opacity="1"><g transform="translate(1344.715053, 206.475658)"><g><path d="M 9.296875 0 C 6.609375 0 4.382812 -0.925781 2.625 -2.78125 C 0.875 -4.644531 0 -6.921875 0 -9.609375 L 0 -157.65625 C 0 -160.34375 0.875 -162.613281 2.625 -164.46875 C 4.382812 -166.332031 6.609375 -167.265625 9.296875 -167.265625 C 11.972656 -167.265625 14.1875 -166.332031 15.9375 -164.46875 C 17.695312 -162.613281 18.578125 -160.34375 18.578125 -157.65625 L 18.578125 -92.921875 L 101.90625 -92.921875 C 104.59375 -92.921875 106.863281 -92.039062 108.71875 -90.28125 C 110.582031 -88.53125 111.515625 -86.3125 111.515625 -83.625 C 111.515625 -80.945312 110.582031 -78.726562 108.71875 -76.96875 C 106.863281 -75.21875 104.59375 -74.34375 101.90625 -74.34375 L 18.578125 -74.34375 L 18.578125 -9.609375 C 18.578125 -6.921875 17.695312 -4.644531 15.9375 -2.78125 C 14.1875 -0.925781 11.972656 0 9.296875 0 Z M 120.796875 0 C 118.117188 0 115.898438 -0.925781 114.140625 -2.78125 C 112.390625 -4.644531 111.515625 -6.921875 111.515625 -9.609375 L 111.515625 -64.734375 C 111.515625 -67.421875 112.390625 -69.691406 114.140625 -71.546875 C 115.898438 -73.410156 118.117188 -74.34375 120.796875 -74.34375 C 123.484375 -74.34375 125.703125 -73.410156 127.453125 -71.546875 C 129.210938 -69.691406 130.09375 -67.421875 130.09375 -64.734375 L 130.09375 -9.609375 C 130.09375 -6.921875 129.210938 -4.644531 127.453125 -2.78125 C 125.703125 -0.925781 123.484375 0 120.796875 0 Z M 120.796875 0 "/></g></g></g></svg>